PathFileType	4	(X/Y/Z)	10_1_52_p1_0-389_filt_butterworth.trc
DataRate	CameraRate	NumFrames	NumMarkers	Units	OrigDataRate	OrigDataStartFrame	OrigNumFrames
59.0	59.0	5	27	m	59.0	291	389
Frame#	Time	RHip			RKnee			RAnkle			RBigToe			RSmallToe			RHeel			LHip			LKnee			LAnkle			LBigToe			LSmallToe			LHeel			Neck			Head			Nose			RShoulder			RElbow			RWrist			RThumb			RIndex			RPinky			LShoulder			LElbow			LWrist			LThumb			LIndex			LPinky			
		X1	Y1	Z1	X2	Y2	Z2	X3	Y3	Z3	X4	Y4	Z4	X5	Y5	Z5	X6	Y6	Z6	X7	Y7	Z7	X8	Y8	Z8	X9	Y9	Z9	X10	Y10	Z10	X11	Y11	Z11	X12	Y12	Z12	X13	Y13	Z13	X14	Y14	Z14	X15	Y15	Z15	X16	Y16	Z16	X17	Y17	Z17	X18	Y18	Z18	X19	Y19	Z19	X20	Y20	Z20	X21	Y21	Z21	X22	Y22	Z22	X23	Y23	Z23	X24	Y24	Z24	X25	Y25	Z25	X26	Y26	Z26	X27	Y27	Z27	
291	4.932203389830509	0.32303430785990245	0.47207244113008967	0.9632758343875045	0.3198825824009849	0.6180817697378999	1.3939765574030256	0.30311216644781325	0.7641568658530536	1.7818459316595079	0.2817000030846742	0.6245807347563868	1.8727977213852935	0.360813857709796	0.6647991190250447	1.868011251813663	0.25846015440758285	0.8542590240261483	1.8462735581652419	0.11754928810795626	0.4698731985706427	0.9751465814239849	0.08694591590650735	0.6154087108462143	1.380687377510497	0.07882162506433751	0.738532900712235	1.7426773241070925	0.09686595979529723	0.6173604779357204	1.8766723925561068	0.0513548763537031	0.6191891329421683	1.8389108123330806	0.09933524997225066	0.7941541879995311	1.7782024435229886	0.21912485076355184	0.3771694352459062	0.469331466777808	0.2393686701100265	0.2500063291828574	0.22682755260612905	0.22487426691346024	0.20697774942883124	0.37037975108337856	0.3750519740430155	0.4476092764500833	0.5497800848468257	0.41877334232149893	0.49192939608667996	0.8315385733321372	0.43574705535441466	0.46035077080518433	1.0695977742584417	0.3825539293098716	0.47407455355114636	1.1802709868506915	0.4084175322916236	0.4572614844730116	1.2207854454654783	0.42433218302699494	0.48576331438039566	1.1897167673949962	0.05431294304502185	0.4090544716298917	0.5510413389959761	0.016265256833908184	0.4141640390162919	0.8291748385665315	0.019940667293825428	0.42834423564858704	1.0942252941444037	0.09112297892935012	0.37329518210085255	1.1809696226938127	0.0699153211649041	0.3791868492943232	1.1946558119381785	0.019675276833383687	0.4403007024105865	1.2072815774071137
292	4.9491525423728815	0.3237320843676344	0.47376850587919545	0.961142329103881	0.3213498061449744	0.6220348443634081	1.3949388519522605	0.3034103047038269	0.7600878141742151	1.7816184056823396	0.28153619535528396	0.6254530792439557	1.8746521239763214	0.35964463382035056	0.6606736598779073	1.867626082931579	0.25841206141646533	0.8545627263745177	1.8462926755758882	0.11523633414758774	0.46995891014238556	0.9741927048095375	0.08697888904252371	0.6142310287640403	1.378365541810135	0.07875802136623974	0.7386100430936047	1.7425617817453927	0.09933037977651504	0.611847468437192	1.8746210551365354	0.05116946164685092	0.6197658415994435	1.8391281007076907	0.09888698712864659	0.7938484392540839	1.7789029199542634	0.22014338274761477	0.37753941381379	0.46828457873810536	0.24119077321082855	0.24687871179970167	0.22733328996363078	0.22363009783303364	0.2087432991685464	0.3646150750843376	0.3747223804611851	0.446515566094327	0.5498109422373557	0.4171777764537525	0.49726968175450387	0.8318208179414934	0.43574789640412054	0.4674877963261016	1.0696703328444694	0.3838947833174159	0.47792373105572644	1.1809612354816557	0.4097492437273696	0.4592167769135564	1.2181591900181759	0.4240244366469612	0.4987751376521887	1.1902778852822506	0.0543409389432566	0.40535796981488725	0.5502479690953946	0.016808282693136493	0.4140372272145946	0.8285509939444338	0.022876265979133073	0.42854167135638077	1.0940442962796315	0.09250126312820979	0.3767061747879622	1.181016173825075	0.07307901468308291	0.3868597859304253	1.19561400560568	0.02191126379384837	0.44156841692514354	1.2077245670711303
293	4.966101694915254	0.3247928552779462	0.4742576115443983	0.9605600864929429	0.32186518356290006	0.6243716524241716	1.3945634313149924	0.30344967976629816	0.7591604513724686	1.781336210024639	0.28163660991908557	0.6258528151520885	1.8751621685901345	0.3589246216778638	0.657547605141036	1.8660653798713818	0.25833905882309527	0.854585641162984	1.846326016140423	0.11354608900147478	0.46973531324503226	0.9731773169029736	0.08696952525817007	0.6140557909477355	1.3783657239511593	0.07867340131049722	0.7388371218497003	1.7423418499858954	0.1016326920736297	0.604769887174708	1.8725913933643847	0.05114126182536176	0.6199263413495963	1.839555456455347	0.09858614798866326	0.794288504001629	1.7819697183497947	0.22049932008931783	0.3776511725524067	0.4665745653308946	0.24289763895282684	0.24437050914319966	0.22739759101466722	0.22326816386736226	0.20887942345319194	0.35942121857800113	0.3739048065790905	0.44349065959048106	0.5499509857535504	0.4156661557554147	0.502414844941588	0.8322660264312227	0.4354487086229235	0.47628599778243735	1.0696874085572068	0.3842811402625827	0.4796853455449932	1.1811878451535618	0.4116257631118662	0.4564804749326782	1.214277829923219	0.4242352149651425	0.5118281673956318	1.1909344224410108	0.05388416965167361	0.40214820939752355	0.5491073973116783	0.018310038041419063	0.41259379778925465	0.827136721338689	0.02477738677110107	0.4284139143043387	1.093844164510687	0.0934492442918357	0.380833460014434	1.1808562835447047	0.07528521094745799	0.3932052160901639	1.1963841155806167	0.022619936205546677	0.4462570591590814	1.208500354404255
294	4.983050847457627	0.32608496802273573	0.4740388712221203	0.9614173485788959	0.3223653408031021	0.6273604843578825	1.394122442557024	0.3033440023072359	0.7611712689391275	1.78086287433207	0.2819280970049824	0.6254839049349971	1.873812237710079	0.35872024407892333	0.6563853121952785	1.8634675305660935	0.25832493746457097	0.854121314875385	1.846631927338641	0.11320535947124792	0.46919143985086065	0.9728412870649967	0.08693699135185927	0.6151166388686133	1.3805287569219067	0.07889542075496223	0.7387549935586496	1.7423757877122235	0.10231244377292231	0.6001365950669793	1.8717242623158743	0.05120864015748047	0.6195764135639068	1.840130272931502	0.09922636413601096	0.7953120611434351	1.7864243853096695	0.22047089419522314	0.37733500359183	0.46442628900111105	0.24375730933816964	0.24582911954866518	0.22666658297011408	0.22355766728961404	0.2089944738698692	0.3555658444013312	0.37284036171270174	0.4393520771041848	0.5501840186129092	0.41465848336060884	0.5058221030377152	0.8325812161900772	0.4351845525270602	0.4825469637964753	1.0696076267198233	0.3841785226270653	0.47991828363608485	1.180729006428794	0.4131306491364363	0.4512874904759766	1.2105140474330345	0.42581097499935266	0.5220619400834969	1.1913882749333256	0.05322982858548392	0.39838859674030735	0.5482236404416574	0.020486097215415725	0.4090837245306826	0.8253186910005026	0.025414913036613786	0.42821063006462734	1.093686588188504	0.09392775271471562	0.38389647456821113	1.1808094617229123	0.07659758301113048	0.3969175423218513	1.1968110739525508	0.021833897649805818	0.45397820951372164	1.2097975498175244
295	5.0	0.3269621558052097	0.473446143394655	0.9624302078424313	0.32330226752930347	0.6312250535362143	1.3939948737733252	0.30336990678317455	0.7650681354224752	1.7804618442758469	0.28218964194504625	0.6248051992283012	1.871892330059218	0.3587649680543157	0.6564546691371492	1.8604841760165693	0.2585496938862775	0.8538046753644869	1.84757309434309	0.11374699335342138	0.468484946467661	0.972508763992333	0.08693844125587523	0.6165751393477514	1.3825224159056735	0.07971690279557989	0.7376517858894709	1.7431963518112843	0.10120536365373167	0.5999859628553297	1.8722620397001002	0.05127505250465453	0.618979419392144	1.840119597461802	0.10125265985645757	0.7965461216192692	1.7911682866837917	0.22037839234668471	0.37659324025234786	0.4621648808471161	0.24385708591948813	0.2517478634375544	0.2251084023541734	0.22430185300188488	0.2111072094612464	0.3527643327749741	0.37208088672137274	0.4360351606937499	0.5504045679428861	0.4143393229076874	0.5068827862203418	0.8324424578867285	0.43506594681193966	0.4845168518113093	1.0693959723597095	0.38390124596339065	0.47949043266949454	1.1796229402005882	0.4137873749344835	0.4472109492599408	1.2074718002740297	0.42877588872797867	0.5275976881647291	1.191394329309645	0.05255694410600878	0.39422166242142376	0.5478697372474814	0.022367673322705128	0.40485570134564236	0.82393501978838	0.025356922521137314	0.4280388824295507	1.093592494115287	0.0940671377203289	0.3850771944417277	1.1808646591565723	0.0770627558948915	0.39804808247027185	1.1969205471315219	0.020750676736640633	0.4609686948485204	1.2109985916547867
